<svg width="46" height="46" viewBox="0 0 46 46" fill="none" xmlns="http://www.w3.org/2000/svg">
<path fill-rule="evenodd" clip-rule="evenodd" d="M18.465 12.066C19.638 12.012 20.012 12 23 12C25.988 12 26.362 12.013 27.534 12.066C28.706 12.119 29.506 12.306 30.206 12.577C30.939 12.854 31.604 13.287 32.154 13.847C32.714 14.396 33.146 15.06 33.422 15.794C33.694 16.494 33.88 17.294 33.934 18.464C33.988 19.639 34 20.013 34 23C34 25.988 33.987 26.362 33.934 27.535C33.881 28.705 33.694 29.505 33.422 30.205C33.146 30.9391 32.7133 31.6042 32.154 32.154C31.604 32.714 30.939 33.146 30.206 33.422C29.506 33.694 28.706 33.88 27.536 33.934C26.362 33.988 25.988 34 23 34C20.012 34 19.638 33.987 18.465 33.934C17.295 33.881 16.495 33.694 15.795 33.422C15.0609 33.146 14.3958 32.7133 13.846 32.154C13.2864 31.6047 12.8533 30.9399 12.577 30.206C12.306 29.506 12.12 28.706 12.066 27.536C12.012 26.361 12 25.987 12 23C12 20.012 12.013 19.638 12.066 18.466C12.119 17.294 12.306 16.494 12.577 15.794C12.8537 15.0601 13.2871 14.3953 13.847 13.846C14.396 13.2865 15.0605 12.8534 15.794 12.577C16.494 12.306 17.294 12.12 18.464 12.066H18.465ZM27.445 14.046C26.285 13.993 25.937 13.982 23 13.982C20.063 13.982 19.715 13.993 18.555 14.046C17.482 14.095 16.9 14.274 16.512 14.425C15.999 14.625 15.632 14.862 15.247 15.247C14.882 15.6021 14.6012 16.0343 14.425 16.512C14.274 16.9 14.095 17.482 14.046 18.555C13.993 19.715 13.982 20.063 13.982 23C13.982 25.937 13.993 26.285 14.046 27.445C14.095 28.518 14.274 29.1 14.425 29.488C14.601 29.965 14.882 30.398 15.247 30.753C15.602 31.118 16.035 31.399 16.512 31.575C16.9 31.726 17.482 31.905 18.555 31.954C19.715 32.007 20.062 32.018 23 32.018C25.938 32.018 26.285 32.007 27.445 31.954C28.518 31.905 29.1 31.726 29.488 31.575C30.001 31.375 30.368 31.138 30.753 30.753C31.118 30.398 31.399 29.965 31.575 29.488C31.726 29.1 31.905 28.518 31.954 27.445C32.007 26.285 32.018 25.937 32.018 23C32.018 20.063 32.007 19.715 31.954 18.555C31.905 17.482 31.726 16.9 31.575 16.512C31.375 15.999 31.138 15.632 30.753 15.247C30.3979 14.8821 29.9657 14.6012 29.488 14.425C29.1 14.274 28.518 14.095 27.445 14.046V14.046ZM21.595 26.391C22.3797 26.7176 23.2534 26.7617 24.0669 26.5157C24.8805 26.2697 25.5834 25.7489 26.0556 25.0422C26.5278 24.3356 26.7401 23.4869 26.656 22.6411C26.572 21.7953 26.197 21.005 25.595 20.405C25.2112 20.0215 24.7472 19.7278 24.2363 19.5451C23.7255 19.3625 23.1804 19.2954 22.6405 19.3486C22.1006 19.4019 21.5792 19.5742 21.1138 19.8531C20.6485 20.1321 20.2507 20.5107 19.9493 20.9619C19.6479 21.413 19.4502 21.9253 19.3705 22.462C19.2908 22.9986 19.3312 23.5463 19.4885 24.0655C19.6459 24.5847 19.9165 25.0626 20.2807 25.4647C20.645 25.8668 21.0938 26.1832 21.595 26.391ZM19.002 19.002C19.527 18.477 20.1503 18.0605 20.8363 17.7764C21.5223 17.4922 22.2575 17.346 23 17.346C23.7425 17.346 24.4777 17.4922 25.1637 17.7764C25.8497 18.0605 26.473 18.477 26.998 19.002C27.523 19.527 27.9395 20.1503 28.2236 20.8363C28.5078 21.5223 28.654 22.2575 28.654 23C28.654 23.7425 28.5078 24.4777 28.2236 25.1637C27.9395 25.8497 27.523 26.473 26.998 26.998C25.9377 28.0583 24.4995 28.654 23 28.654C21.5005 28.654 20.0623 28.0583 19.002 26.998C17.9417 25.9377 17.346 24.4995 17.346 23C17.346 21.5005 17.9417 20.0623 19.002 19.002V19.002ZM29.908 18.188C30.0381 18.0653 30.1423 17.9177 30.2143 17.754C30.2863 17.5903 30.3248 17.4138 30.3274 17.2349C30.33 17.0561 30.2967 16.8785 30.2295 16.7128C30.1622 16.5471 30.0624 16.3965 29.936 16.27C29.8095 16.1436 29.6589 16.0438 29.4932 15.9765C29.3275 15.9093 29.1499 15.876 28.9711 15.8786C28.7922 15.8812 28.6157 15.9197 28.452 15.9917C28.2883 16.0637 28.1407 16.1679 28.018 16.298C27.7793 16.551 27.6486 16.8871 27.6537 17.2349C27.6588 17.5827 27.7992 17.9149 28.0452 18.1608C28.2911 18.4068 28.6233 18.5472 28.9711 18.5523C29.3189 18.5574 29.655 18.4267 29.908 18.188V18.188Z" fill="#F8F8F8"/>
<circle cx="23" cy="23" r="22.5" stroke="#F8F8F8"/>
</svg>
