<svg width="115" height="34" viewBox="0 0 115 34" fill="none" xmlns="http://www.w3.org/2000/svg">
<path fill-rule="evenodd" clip-rule="evenodd" d="M0 9.80449V9.88984L19.363 19.0004L38.7952 9.85931V9.83641L19.363 0.693878L0 9.80449ZM6.98105 9.84751L19.363 4.02102L31.7476 9.84751L19.363 15.6733L6.98036 9.84751H6.98105ZM19.363 22.5392L0 13.5653V16.8848L19.363 25.8802L38.7952 16.8536V13.5341L19.363 22.5392ZM19.363 29.2719L0 20.2959V23.6147L19.363 32.6122L38.7952 23.5849V20.2654L19.363 29.2719V29.2719Z" fill="white"/>
<mask id="mask0_24_2" style="mask-type:alpha" maskUnits="userSpaceOnUse" x="49" y="0" width="66" height="34">
<path d="M49.8892 0.020813H114.982V33.5282H49.8899L49.8892 0.020813Z" fill="white"/>
</mask>
<g mask="url(#mask0_24_2)">
<path fill-rule="evenodd" clip-rule="evenodd" d="M110.539 16.7582C110.55 15.3252 110.015 13.9419 109.042 12.8912C108.584 12.3998 108.033 12.0051 107.421 11.7304C106.8 11.4515 106.127 11.3093 105.446 11.3134C104.747 11.3134 104.088 11.4521 103.47 11.7304C102.858 12.0051 102.307 12.3998 101.849 12.8912C100.877 13.9423 100.341 15.3258 100.353 16.7589C100.341 18.1918 100.877 19.575 101.849 20.6259C102.307 21.1171 102.858 21.5115 103.47 21.786C104.091 22.0653 104.765 22.2077 105.446 22.2038C106.145 22.2038 106.803 22.065 107.421 21.786C108.033 21.5114 108.584 21.1169 109.042 20.6259C110.015 19.5749 110.55 18.1914 110.538 16.7582H110.539ZM114.983 16.7582C114.983 18.0988 114.736 19.3415 114.242 20.4864C113.767 21.6026 113.075 22.6123 112.205 23.4562C111.341 24.2923 110.327 24.9522 109.165 25.4365C108.003 25.9216 106.762 26.1637 105.446 26.1637C104.129 26.1637 102.894 25.9216 101.742 25.4365C100.617 24.9695 99.5901 24.2923 98.7173 23.4409C97.8493 22.5896 97.1572 21.5752 96.6806 20.4559C96.1866 19.311 95.9393 18.0787 95.9393 16.7582C95.9393 15.4586 96.1915 14.2367 96.6958 13.0918C97.1839 11.9703 97.8802 10.9519 98.7478 10.0907C99.6173 9.2313 100.645 8.54847 101.773 8.07989C102.936 7.59303 104.185 7.34572 105.446 7.3527C106.762 7.3527 108.002 7.59556 109.165 8.07989C110.327 8.56421 111.34 9.22478 112.205 10.0602C113.069 10.8956 113.748 11.8907 114.242 13.0453C114.736 14.2006 114.983 15.4385 114.983 16.7582V16.7582ZM94.3958 25.6072C94.015 25.7829 93.6168 25.9178 93.2077 26.0097C92.7657 26.1124 92.3071 26.1637 91.8347 26.1637C91.1927 26.166 90.5537 26.0775 89.9365 25.9007C89.3508 25.737 88.8081 25.4466 88.3466 25.05C87.8942 24.658 87.5339 24.148 87.2658 23.5187C86.9991 22.8893 86.8654 22.1309 86.8654 21.2448V0.0198059H91.4024V20.4712C91.4024 21.2136 91.5513 21.7243 91.8499 22.0025C92.1478 22.2808 92.5032 22.4203 92.9147 22.4203C93.4287 22.4203 93.9227 22.2655 94.3958 21.956V25.6072V25.6072ZM84.8591 7.78499L76.8341 29.0412C76.2376 30.6295 75.4555 31.7744 74.4884 32.4759C73.5213 33.1767 72.3685 33.5271 71.0314 33.5271C70.8257 33.5271 70.5998 33.5119 70.3525 33.4814C70.1128 33.4518 69.8755 33.4052 69.6424 33.3419L68.1613 29.196C68.5081 29.3598 68.87 29.4892 69.242 29.5825C69.6119 29.6754 69.9618 29.7219 70.2909 29.7219C70.9906 29.7219 71.6279 29.5623 72.2043 29.2425C72.7807 28.9233 73.2227 28.33 73.5316 27.4634L74.1489 25.669L67.2662 7.78568H72.1122L76.2168 19.2957L80.0756 7.78568H84.8591V7.78499ZM66.1862 5.09413H54.5809V10.8492H66.0317V14.7474H54.5802V25.6995H49.8901V0.979438H66.1869V5.09413H66.1862Z" fill="white"/>
</g>
</svg>
